<?xml version="1.0" encoding="UTF-8"?>
<svg id="Layer_1" xmlns="http://www.w3.org/2000/svg" version="1.1" viewBox="0 0 2063.3 474.7">
  <!-- Generator: Adobe Illustrator 30.4.0, SVG Export Plug-In . SVG Version: 2.1.3 Build 87)  -->
  <defs>
    <style>
      .st0 {
        fill: #f75e52;
      }

      .st1 {
        fill: #fff;
      }

      .st2 {
        fill: #2d71e0;
      }

      .st3 {
        fill: #e9f766;
      }
    </style>
  </defs>
  <g>
    <g>
      <g>
        <path class="st2" d="M381.2-2254.9h138.3l48,217,48-217h138.3l-94.3,218h-183.9l-94.3-218Z"/>
        <polygon class="st2" points="1145.4 -2312.4 1145.4 -2036.9 1263.8 -2036.9 1263.8 -2324.9 1263.8 -2324.9 1145.4 -2312.4"/>
        <path class="st2" d="M1280-2254.9h138.3l48,217,48-217h138.3l-94.3,218h-183.9l-94.3-218Z"/>
        <path class="st2" d="M1045.6-2254.9h-218.7c-44,0-79.7,35.7-79.7,79.7v58.7c0,44,35.7,79.7,79.7,79.7h218.7c44,0,79.7-35.7,79.7-79.7v-58.7c0-44-35.7-79.7-79.7-79.7ZM985.2-2103.9c0,13.3-10.7,24-24,24h-50c-13.3,0-24-10.7-24-24v-84c0-13.3,10.7-24,24-24h50c13.3,0,24,10.7,24,24v84Z"/>
        <path class="st2" d="M266.4-2116.3l.2,1.5c1.4,13.2-8.2,25.1-21.4,26.4l-80.1,8.4c-13.2,1.4-25.1-8.2-26.4-21.4l-.2-1.5h0l-2.2-21.4,127.9-13.4h0l123.5-13v-24.6c0-44-35.7-79.7-79.7-79.7H89.3c-44,0-79.7,35.7-79.7,79.7v58.7c0,44,35.7,79.7,79.7,79.7h218.7c44,0,79.7-35.7,79.7-79.7v-12.5l-121.2,12.7ZM130.7-2176.9c-1.4-13.2,8.2-25.1,21.4-26.4l80.1-8.4c13.2-1.4,25.1,8.2,26.4,21.4l2.1,19.8-127.9,13.4-2.1-19.8Z"/>
        <path class="st2" d="M1903-2116.4l.2,1.5c1.4,13.2-8.2,25.1-21.4,26.4l-80.1,8.4c-13.2,1.4-25.1-8.2-26.4-21.4l-.2-1.5h0l-2.2-21.4,251.4-26.4v-24.6c0-44-35.7-79.7-79.7-79.7h-218.7c-44,0-79.7,35.7-79.7,79.7v58.7c0,44,35.7,79.7,79.7,79.7h218.7c44,0,79.7-35.7,79.7-79.7v-12.5l-121.2,12.7ZM1767.3-2176.9c-1.4-13.2,8.2-25.1,21.4-26.4l80.1-8.4c13.2-1.4,25.1,8.2,26.4,21.4l2.1,19.8-127.9,13.4-2.1-19.8Z"/>
      </g>
      <path class="st2" d="M2024.2-2052.1c0-8.6,6.4-15.1,14.8-15.1s14.8,6.5,14.8,15.1-6.4,15.1-14.8,15.1-14.8-6.6-14.8-15.1ZM2050.7-2052.1c0-7-5-12.3-11.7-12.3s-11.8,5.3-11.8,12.3,5.1,12.2,11.8,12.2,11.7-5.3,11.7-12.2ZM2032.9-2060.4h6.7c3.9,0,5.9,1.7,5.9,4.6s-1.3,3.8-3.3,4.2v.2c1.4.2,2.2,1,2.6,2.5l.9,2.8c.2.7.5,1.4.7,1.8h-3.6c-.2-.5-.4-1.1-.6-1.7l-.6-2.2c-.5-1.6-.9-1.9-2.8-1.9h-2.6v5.8h-3.3v-16.1ZM2042.2-2055.3c0-1.4-.8-2.2-2.8-2.2h-3.2v4.6h3.2c1.8,0,2.8-.8,2.8-2.4Z"/>
    </g>
    <g>
      <path class="st2" d="M1948.5-1971.5v106.4h-683.8v-106.4h683.8M1954.5-1977.5h-695.8v118.4h695.8v-118.4h0Z"/>
      <g>
        <path class="st2" d="M669-1887.6v-56.3h16.2l15.1,32.3c.4.8.9,2,1.5,3.4.6,1.4,1.2,2.9,1.8,4.5.6,1.5,1.2,3,1.8,4.3h.5c.5-1.1,1-2.5,1.6-3.9.6-1.5,1.2-2.9,1.8-4.4.6-1.4,1.2-2.7,1.6-3.6l15.1-32.5h16v56.3h-10.7v-35.3c0-1,0-2.1,0-3.3,0-1.2,0-2.4.1-3.6,0-1.2.1-2.2.2-3.1h-.7c-.3.8-.6,1.8-1.1,2.9-.4,1.1-.9,2.2-1.4,3.3-.5,1.1-.9,2-1.3,2.9l-16.8,36.3h-10.4l-16.9-36.3c-.5-1-1-2.1-1.5-3.2-.5-1.1-.9-2.2-1.3-3.2-.4-1-.7-1.9-.9-2.6h-.7c0,.8,0,1.7.1,2.9,0,1.1,0,2.3,0,3.6,0,1.2,0,2.4,0,3.6v35.3h-10.2Z"/>
        <path class="st2" d="M796.4-1886.7c-7.4,0-13.7-1.1-19.1-3.4-5.4-2.2-9.5-5.5-12.4-9.9-2.9-4.3-4.3-9.6-4.3-15.9s1.4-11.7,4.3-15.9c2.9-4.3,7-7.6,12.4-9.8,5.4-2.3,11.7-3.4,19.1-3.4s13.8,1.1,19.2,3.4c5.4,2.3,9.5,5.5,12.4,9.8,2.9,4.3,4.3,9.6,4.3,15.9s-1.4,11.5-4.3,15.9c-2.9,4.3-7,7.6-12.4,9.9-5.4,2.2-11.8,3.4-19.2,3.4ZM796.4-1895.6c3.6,0,6.8-.4,9.9-1.1,3-.8,5.7-1.9,8-3.5,2.3-1.6,4-3.6,5.3-6.1,1.3-2.5,1.9-5.3,1.9-8.6v-1.9c0-3.2-.6-6.1-1.9-8.5-1.3-2.4-3-4.4-5.3-6-2.3-1.6-4.9-2.8-8-3.5-3-.8-6.3-1.1-9.9-1.1s-6.9.4-10,1.1-5.7,1.9-8,3.5c-2.3,1.6-4,3.6-5.2,6-1.2,2.4-1.8,5.3-1.8,8.5v1.9c0,3.3.6,6.2,1.8,8.6,1.2,2.5,3,4.5,5.2,6.1,2.3,1.6,4.9,2.8,8,3.5,3,.8,6.4,1.1,10,1.1Z"/>
        <path class="st2" d="M850.8-1887.6v-56.3h42c3.1,0,5.9.6,8.2,1.7s4.2,2.7,5.5,4.8c1.3,2,2,4.4,2,7.2s-.4,4.2-1.2,5.9c-.8,1.8-1.9,3.3-3.4,4.5-1.4,1.2-3.1,2.1-4.9,2.7v.3c2.2.4,4.1,1.3,5.8,2.5,1.7,1.2,3,2.8,3.9,4.7,1,1.9,1.4,4.2,1.4,6.7s-.8,6.4-2.3,8.6c-1.6,2.2-3.6,3.9-6.3,5-2.6,1.1-5.5,1.6-8.8,1.6h-42ZM861.4-1920.7h27.7c1.7,0,3.2-.3,4.5-.9,1.3-.6,2.3-1.5,3-2.6.7-1.1,1.1-2.4,1.1-3.9,0-2.4-.7-4.2-2.1-5.3-1.4-1.1-3.2-1.7-5.5-1.7h-28.7v14.3ZM861.4-1896.6h29.5c2.5,0,4.6-.6,6.1-1.8,1.6-1.2,2.3-3.1,2.3-5.7s-.3-3-1-4.2c-.7-1.2-1.7-2.1-3-2.7-1.3-.6-2.9-.9-4.8-.9h-29.2v15.3Z"/>
        <path class="st2" d="M927.6-1887.6v-56.3h10.6v56.3h-10.6Z"/>
        <path class="st2" d="M959.1-1887.6v-56.3h10.6v47h35.5v9.3h-46.1Z"/>
        <path class="st2" d="M1020.5-1887.6v-56.3h10.6v56.3h-10.6Z"/>
        <path class="st2" d="M1071-1887.6v-47h-25.3v-9.3h61.1v9.3h-25.3v47h-10.6Z"/>
        <path class="st2" d="M1140.7-1887.6v-23l-27.8-33.3h12.9l20.1,24.7h.8l20.3-24.7h12.1l-27.9,33.3v23h-10.6Z"/>
      </g>
      <g>
        <g>
          <path class="st2" d="M129.1-1887.7v-56.3h10.6v23h40.3v-23h10.6v56.3h-10.6v-24h-40.3v24h-10.6Z"/>
          <path class="st2" d="M211.6-1887.7v-56.3h56.2v8.9h-45.6v14.2h40.8v8.9h-40.8v15.3h46.2v8.9h-56.8Z"/>
          <path class="st2" d="M280.7-1887.7l28.5-56.3h12.1l28.5,56.3h-11.6l-6.1-12.1h-34.3l-6.1,12.1h-10.9ZM301.9-1908.5h25.7l-7.5-15.3c-.3-.6-.7-1.5-1.2-2.6-.5-1.1-1-2.3-1.6-3.5-.5-1.2-1-2.3-1.4-3.2-.4-.9-.7-1.5-.9-1.7h-.7c-.5,1.1-1.1,2.4-1.7,3.8-.7,1.4-1.3,2.8-1.9,4.1-.6,1.3-1.1,2.4-1.5,3.1l-7.5,15.3Z"/>
          <path class="st2" d="M364.5-1887.7v-56.3h10.6v47h35.5v9.3h-46.1Z"/>
          <path class="st2" d="M431.7-1887.7v-47h-25.3v-9.3h61.1v9.3h-25.3v47h-10.6Z"/>
          <path class="st2" d="M482.3-1887.7v-56.3h10.6v23h40.3v-23h10.6v56.3h-10.6v-24h-40.3v24h-10.6Z"/>
        </g>
        <path class="st2" d="M531.8-1971.5c29.3,0,53.2,23.9,53.2,53.2s-23.9,53.2-53.2,53.2H141.1c-29.3,0-53.2-23.9-53.2-53.2s23.9-53.2,53.2-53.2h390.7M531.8-1977.5H141.1c-32.7,0-59.2,26.5-59.2,59.2h0c0,32.7,26.5,59.2,59.2,59.2h390.7c32.7,0,59.2-26.5,59.2-59.2h0c0-32.7-26.5-59.2-59.2-59.2h0Z"/>
      </g>
      <g>
        <path class="st2" d="M1325.9-1886.7c-4.1,0-8-.2-11.6-.7-3.7-.5-6.9-1.4-9.7-2.7-2.8-1.3-5-3.1-6.5-5.5-1.6-2.3-2.3-5.3-2.3-9.1v-.5c0-.2,0-.3,0-.5h10.5c0,.2,0,.5-.1.8,0,.3,0,.7,0,1.1,0,1.9.8,3.4,2.4,4.6,1.6,1.2,3.9,2.1,6.8,2.7,3,.6,6.4.9,10.4.9s3.6,0,5.4-.2,3.5-.4,5-.8c1.6-.4,3-.8,4.2-1.4,1.2-.6,2.2-1.3,3-2.2.7-.9,1.1-1.9,1.1-3,0-1.6-.7-3-2-4-1.3-1-3.1-1.8-5.3-2.5-2.2-.6-4.8-1.1-7.6-1.6-2.8-.4-5.7-.8-8.7-1.3-3-.5-5.9-1.1-8.7-1.8-2.8-.8-5.3-1.7-7.5-3-2.2-1.2-4-2.8-5.3-4.7-1.3-1.9-2-4.3-2-7.2s.6-4.7,1.8-6.6c1.2-1.9,2.9-3.6,5.3-5,2.3-1.4,5.3-2.5,8.9-3.2s7.7-1.1,12.5-1.1,9,.4,12.5,1.2c3.4.8,6.3,2,8.4,3.4,2.2,1.4,3.8,3.1,4.8,5,1,1.9,1.5,4,1.5,6.1v1.4h-10.3v-1.3c0-1.3-.7-2.5-2-3.6-1.3-1.1-3.2-1.9-5.7-2.6-2.4-.7-5.3-1-8.5-1s-7.7.3-10.3.9c-2.7.6-4.7,1.4-5.9,2.3-1.3,1-1.9,2.2-1.9,3.5s.6,2.6,1.9,3.5c1.3.9,3,1.6,5.3,2.2,2.2.5,4.8,1,7.6,1.4,2.8.4,5.7.9,8.7,1.4,3,.5,5.9,1.1,8.7,1.8,2.8.7,5.3,1.7,7.5,3,2.2,1.3,4,2.8,5.3,4.8,1.3,1.9,2,4.3,2,7.1,0,4.3-1.2,7.8-3.7,10.4-2.5,2.6-5.9,4.5-10.3,5.6-4.4,1.1-9.5,1.7-15.4,1.7Z"/>
        <path class="st2" d="M1394.1-1887.7v-47h-25.3v-9.3h61.1v9.3h-25.3v47h-10.6Z"/>
        <path class="st2" d="M1447.2-1887.7v-56.3h43.4c3.8,0,7,.8,9.6,2.3,2.5,1.6,4.4,3.6,5.7,6.2,1.3,2.6,1.9,5.5,1.9,8.7s-.9,6.5-2.7,9.4c-1.8,2.9-4.4,5.1-8,6.6l12.1,23h-11.9l-10.7-21.1h-28.7v21.1h-10.6ZM1457.8-1917.6h30.1c2.8,0,5.1-.8,6.6-2.5,1.6-1.7,2.4-3.8,2.4-6.4s-.3-3.3-1-4.6c-.7-1.3-1.7-2.2-3.1-2.9-1.4-.7-3-1-4.9-1h-30.1v17.5Z"/>
        <path class="st2" d="M1528.4-1887.7v-56.3h56.2v8.9h-45.6v14.2h40.8v8.9h-40.8v15.3h46.2v8.9h-56.8Z"/>
        <path class="st2" d="M1606.2-1887.7v-56.3h10.1l33.2,32.9c.7.6,1.4,1.4,2.3,2.3.9,1,1.8,1.9,2.8,2.9,1,1,1.8,1.9,2.4,2.6h.7c0-1.1-.1-2.5-.2-4.1,0-1.6,0-3,0-4.2v-32.5h10.2v56.3h-9.8l-33.3-33.2c-1.4-1.4-2.8-2.8-4.3-4.4-1.5-1.6-2.7-2.8-3.5-3.8h-.6c0,.8,0,2.1.1,3.9,0,1.8,0,3.6,0,5.7v31.9h-10.2Z"/>
        <path class="st2" d="M1722.6-1886.7c-11.4,0-19.9-2.4-25.5-7.2-5.7-4.8-8.5-12.1-8.5-21.9s1.4-11.8,4.3-16.1,7-7.6,12.4-9.8c5.4-2.2,11.9-3.3,19.4-3.3s9.6.4,13.7,1.3c4.1.8,7.6,2.1,10.5,3.8,2.9,1.7,5.2,3.8,6.7,6.4,1.6,2.6,2.3,5.7,2.3,9.2h-10.3c0-2.3-.6-4.2-1.8-5.8-1.2-1.6-2.9-2.8-5-3.6-2.1-.9-4.5-1.5-7.2-1.8-2.7-.4-5.5-.5-8.4-.5s-7,.4-10.1,1.1c-3.1.7-5.9,1.8-8.2,3.4-2.4,1.5-4.2,3.5-5.5,5.9-1.3,2.4-2,5.4-2,8.8v2c0,4.6,1,8.4,3,11.2,2,2.8,4.8,4.9,8.4,6.1,3.6,1.3,7.8,1.9,12.6,1.9s10.4-.5,13.9-1.6c3.5-1.1,6.1-2.7,7.7-4.7,1.6-2,2.5-4.4,2.5-7.2v-.9h-24.2v-8.5h34.6v30.9h-6.8l-1.1-7.9c-2,2.1-4.5,3.9-7.3,5.2-2.8,1.3-6,2.3-9.4,2.8-3.4.6-7,.9-10.7.9Z"/>
        <path class="st2" d="M1799.8-1887.7v-47h-25.3v-9.3h61.1v9.3h-25.3v47h-10.6Z"/>
        <path class="st2" d="M1852.8-1887.7v-56.3h10.6v23h40.3v-23h10.6v56.3h-10.6v-24h-40.3v24h-10.6Z"/>
      </g>
      <path class="st2" d="M1221.2-1971.5l-23.5,106.4h-579.2l24.7-106.4h578M1228.7-1977.5h-590.3l-27.5,118.4h591.6l26.2-118.4h0Z"/>
    </g>
  </g>
  <g>
    <g>
      <path class="st2" d="M381.2-2966.9h138.3l48,217,48-217h138.3l-94.3,218h-183.9l-94.3-218Z"/>
      <polygon class="st2" points="1145.4 -3024.4 1145.4 -2748.9 1263.8 -2748.9 1263.8 -3036.9 1263.8 -3036.9 1145.4 -3024.4"/>
      <path class="st2" d="M1280-2966.9h138.3l48,217,48-217h138.3l-94.3,218h-183.9l-94.3-218Z"/>
      <path class="st2" d="M1045.6-2966.9h-218.7c-44,0-79.7,35.7-79.7,79.7v58.7c0,44,35.7,79.7,79.7,79.7h218.7c44,0,79.7-35.7,79.7-79.7v-58.7c0-44-35.7-79.7-79.7-79.7ZM985.2-2815.9c0,13.3-10.7,24-24,24h-50c-13.3,0-24-10.7-24-24v-84c0-13.3,10.7-24,24-24h50c13.3,0,24,10.7,24,24v84Z"/>
      <path class="st2" d="M266.4-2828.3l.2,1.5c1.4,13.2-8.2,25.1-21.4,26.4l-80.1,8.4c-13.2,1.4-25.1-8.2-26.4-21.4l-.2-1.5h0l-2.2-21.4,127.9-13.4h0l123.5-13v-24.6c0-44-35.7-79.7-79.7-79.7H89.3c-44,0-79.7,35.7-79.7,79.7v58.7c0,44,35.7,79.7,79.7,79.7h218.7c44,0,79.7-35.7,79.7-79.7v-12.5l-121.2,12.7ZM130.7-2888.9c-1.4-13.2,8.2-25.1,21.4-26.4l80.1-8.4c13.2-1.4,25.1,8.2,26.4,21.4l2.1,19.8-127.9,13.4-2.1-19.8Z"/>
      <path class="st2" d="M1903-2828.4l.2,1.5c1.4,13.2-8.2,25.1-21.4,26.4l-80.1,8.4c-13.2,1.4-25.1-8.2-26.4-21.4l-.2-1.5h0l-2.2-21.4,251.4-26.4v-24.6c0-44-35.7-79.7-79.7-79.7h-218.7c-44,0-79.7,35.7-79.7,79.7v58.7c0,44,35.7,79.7,79.7,79.7h218.7c44,0,79.7-35.7,79.7-79.7v-12.5l-121.2,12.7ZM1767.3-2888.9c-1.4-13.2,8.2-25.1,21.4-26.4l80.1-8.4c13.2-1.4,25.1,8.2,26.4,21.4l2.1,19.8-127.9,13.4-2.1-19.8Z"/>
    </g>
    <path class="st2" d="M2024.2-2764.1c0-8.6,6.4-15.1,14.8-15.1s14.8,6.5,14.8,15.1-6.4,15.1-14.8,15.1-14.8-6.6-14.8-15.1ZM2050.7-2764.1c0-7-5-12.3-11.7-12.3s-11.8,5.3-11.8,12.3,5.1,12.2,11.8,12.2,11.7-5.3,11.7-12.2ZM2032.9-2772.4h6.7c3.9,0,5.9,1.7,5.9,4.6s-1.3,3.8-3.3,4.2v.2c1.4.2,2.2,1,2.6,2.5l.9,2.8c.2.7.5,1.4.7,1.8h-3.6c-.2-.5-.4-1.1-.6-1.7l-.6-2.2c-.5-1.6-.9-1.9-2.8-1.9h-2.6v5.8h-3.3v-16.1ZM2042.2-2767.3c0-1.4-.8-2.2-2.8-2.2h-3.2v4.6h3.2c1.8,0,2.8-.8,2.8-2.4Z"/>
  </g>
  <g>
    <rect class="st2" x="1145.4" y="-1012.2" width="491.1" height="118.4"/>
    <g>
      <path class="st1" d="M1178.8-922.3v-56.3h10.6v47h35.5v9.3h-46.1Z"/>
      <path class="st1" d="M1242.6-922.3v-56.3h10.6v56.3h-10.6Z"/>
      <path class="st1" d="M1276.5-922.3v-56.3h52.7v8.9h-42.1v15.4h38.5v8.9h-38.5v23.1h-10.6Z"/>
      <path class="st1" d="M1366.5-922.3v-47h-25.3v-9.3h61.1v9.3h-25.3v47h-10.6Z"/>
      <path class="st1" d="M1419.5-922.3v-56.3h10.6v56.3h-10.6Z"/>
      <path class="st1" d="M1453.5-922.3v-56.3h10.1l33.2,32.9c.7.6,1.4,1.4,2.3,2.3.9,1,1.8,1.9,2.8,2.9,1,1,1.8,1.9,2.4,2.6h.7c0-1.1-.1-2.5-.2-4.1,0-1.6,0-3,0-4.2v-32.5h10.2v56.3h-9.8l-33.3-33.2c-1.4-1.4-2.8-2.8-4.3-4.4-1.5-1.6-2.7-2.8-3.5-3.8h-.6c0,.8,0,2.1.1,3.9,0,1.8,0,3.6,0,5.7v31.9h-10.2Z"/>
      <path class="st1" d="M1568-921.3c-11.4,0-19.9-2.4-25.5-7.2-5.7-4.8-8.5-12.1-8.5-21.9s1.4-11.8,4.3-16.1c2.9-4.3,7-7.6,12.4-9.8,5.4-2.2,11.9-3.3,19.4-3.3s9.6.4,13.7,1.3c4.1.8,7.6,2.1,10.5,3.8s5.2,3.8,6.7,6.4c1.6,2.6,2.3,5.7,2.3,9.2h-10.3c0-2.3-.6-4.2-1.8-5.8-1.2-1.6-2.9-2.8-5-3.6-2.1-.9-4.5-1.5-7.2-1.8s-5.5-.5-8.4-.5-7,.4-10.1,1.1c-3.1.7-5.9,1.8-8.2,3.4-2.4,1.5-4.2,3.5-5.5,5.9-1.3,2.4-2,5.4-2,8.8v2c0,4.6,1,8.4,3,11.2,2,2.8,4.8,4.9,8.4,6.1,3.6,1.3,7.8,1.9,12.6,1.9s10.4-.5,13.9-1.6c3.5-1.1,6.1-2.7,7.7-4.7,1.6-2,2.5-4.4,2.5-7.2v-.9h-24.2v-8.5h34.6v30.9h-6.8l-1.1-7.9c-2,2.1-4.5,3.9-7.3,5.2-2.8,1.3-6,2.3-9.4,2.8-3.4.6-7,.9-10.7.9Z"/>
    </g>
    <g>
      <path class="st2" d="M1729-921.3c-7.5,0-13.8-1.1-18.9-3.3s-8.9-5.5-11.4-9.8-3.8-9.7-3.8-16c0-9.3,2.9-16.5,8.8-21.5,5.8-5.1,14.2-7.6,25.2-7.6s11.8.9,16.6,2.6c4.8,1.7,8.6,4.2,11.2,7.5,2.7,3.3,4,7.4,4,12.2h-10.4c0-3.1-.9-5.6-2.7-7.5-1.8-2-4.3-3.4-7.6-4.4-3.3-1-7.1-1.4-11.4-1.4s-8.5.7-12,2.2c-3.4,1.4-6.1,3.6-8,6.4-1.9,2.8-2.9,6.3-2.9,10.5v2.1c0,4.3,1,7.8,2.9,10.7,1.9,2.9,4.6,5,8.1,6.4,3.5,1.4,7.5,2.1,12.1,2.1s8.3-.5,11.6-1.4c3.2-.9,5.7-2.4,7.5-4.4,1.8-2,2.7-4.5,2.7-7.4h10.2c0,4.7-1.3,8.7-4,12-2.7,3.3-6.4,5.8-11.2,7.5-4.8,1.7-10.3,2.6-16.6,2.6Z"/>
      <path class="st2" d="M1778.3-922.3v-56.3h10.6v47h35.5v9.3h-46.1Z"/>
      <path class="st2" d="M1867.2-921.3c-6.9,0-12.6-1.1-17.1-3.2-4.5-2.1-7.9-5.2-10.1-9.1-2.2-4-3.3-8.6-3.3-14v-31h10.7v30.7c0,5.7,1.7,10.1,5.1,13.1,3.4,3.1,8.3,4.6,14.7,4.6s11.2-1.5,14.7-4.6c3.4-3.1,5.2-7.4,5.2-13.1v-30.7h10.6v31c0,5.4-1.1,10-3.3,14-2.2,4-5.6,7-10,9.1-4.5,2.1-10.2,3.2-17.1,3.2Z"/>
      <path class="st2" d="M1917.2-922.3v-56.3h42c3.1,0,5.9.6,8.2,1.7,2.4,1.1,4.2,2.7,5.5,4.8,1.3,2,2,4.4,2,7.2s-.4,4.2-1.2,5.9c-.8,1.8-1.9,3.3-3.4,4.5-1.4,1.2-3.1,2.1-4.9,2.7v.3c2.2.4,4.1,1.3,5.8,2.5,1.7,1.2,3,2.8,3.9,4.7,1,1.9,1.4,4.2,1.4,6.7s-.8,6.4-2.3,8.6c-1.6,2.2-3.6,3.9-6.3,5s-5.5,1.6-8.8,1.6h-42ZM1927.8-955.4h27.7c1.7,0,3.2-.3,4.5-.9,1.3-.6,2.3-1.5,3-2.6s1.1-2.4,1.1-3.9c0-2.4-.7-4.2-2.1-5.3-1.4-1.1-3.2-1.7-5.5-1.7h-28.7v14.3ZM1927.8-931.3h29.5c2.5,0,4.6-.6,6.1-1.8,1.6-1.2,2.3-3.1,2.3-5.7s-.3-3-1-4.2c-.7-1.2-1.7-2.1-3-2.7-1.3-.6-2.9-.9-4.8-.9h-29.2v15.3Z"/>
    </g>
    <path class="st2" d="M1954.6-1006.2c29.3,0,53.2,23.9,53.2,53.2s-23.9,53.2-53.2,53.2h-238.8c-29.3,0-53.2-23.9-53.2-53.2s23.9-53.2,53.2-53.2h238.8M1954.6-1012.2h-238.8c-32.7,0-59.2,26.5-59.2,59.2h0c0,32.7,26.5,59.2,59.2,59.2h238.8c32.7,0,59.2-26.5,59.2-59.2h0c0-32.7-26.5-59.2-59.2-59.2h0Z"/>
    <g>
      <path class="st2" d="M381.2-1289.5h138.3l48,217,48-217h138.3l-94.3,218h-183.9l-94.3-218Z"/>
      <polygon class="st2" points="1145.4 -1347.1 1145.4 -1071.5 1263.8 -1071.5 1263.8 -1359.5 1263.8 -1359.5 1145.4 -1347.1"/>
      <path class="st2" d="M1280-1289.5h138.3l48,217,48-217h138.3l-94.3,218h-183.9l-94.3-218Z"/>
      <path class="st2" d="M1045.6-1289.6h-218.7c-44,0-79.7,35.7-79.7,79.7v58.7c0,44,35.7,79.7,79.7,79.7h218.7c44,0,79.7-35.7,79.7-79.7v-58.7c0-44-35.7-79.7-79.7-79.7ZM985.2-1138.6c0,13.3-10.7,24-24,24h-50c-13.3,0-24-10.7-24-24v-84c0-13.3,10.7-24,24-24h50c13.3,0,24,10.7,24,24v84Z"/>
      <path class="st2" d="M266.4-1151l.2,1.5c1.4,13.2-8.2,25.1-21.4,26.4l-80.1,8.4c-13.2,1.4-25.1-8.2-26.4-21.4l-.2-1.5h0l-2.2-21.4,127.9-13.4h0l123.5-13v-24.6c0-44-35.7-79.7-79.7-79.7H89.3c-44,0-79.7,35.7-79.7,79.7v58.7c0,44,35.7,79.7,79.7,79.7h218.7c44,0,79.7-35.7,79.7-79.7v-12.5l-121.2,12.7ZM130.7-1211.5c-1.4-13.2,8.2-25.1,21.4-26.4l80.1-8.4c13.2-1.4,25.1,8.2,26.4,21.4l2.1,19.8-127.9,13.4-2.1-19.8Z"/>
      <path class="st2" d="M1903-1151l.2,1.5c1.4,13.2-8.2,25.1-21.4,26.4l-80.1,8.4c-13.2,1.4-25.1-8.2-26.4-21.4l-.2-1.5h0l-2.2-21.4,251.4-26.4v-24.6c0-44-35.7-79.7-79.7-79.7h-218.7c-44,0-79.7,35.7-79.7,79.7v58.7c0,44,35.7,79.7,79.7,79.7h218.7c44,0,79.7-35.7,79.7-79.7v-12.5l-121.2,12.7ZM1767.3-1211.6c-1.4-13.2,8.2-25.1,21.4-26.4l80.1-8.4c13.2-1.4,25.1,8.2,26.4,21.4l2.1,19.8-127.9,13.4-2.1-19.8Z"/>
      <path class="st2" d="M2024.2-1086.8c0-8.6,6.4-15.1,14.8-15.1s14.8,6.5,14.8,15.1-6.4,15.1-14.8,15.1-14.8-6.6-14.8-15.1ZM2050.7-1086.8c0-7-5-12.3-11.7-12.3s-11.8,5.3-11.8,12.3,5.1,12.2,11.8,12.2,11.7-5.3,11.7-12.2ZM2032.9-1095h6.7c3.9,0,5.9,1.7,5.9,4.6s-1.3,3.8-3.3,4.2v.2c1.4.2,2.2,1,2.6,2.5l.9,2.8c.2.7.5,1.4.7,1.8h-3.6c-.2-.5-.4-1.1-.6-1.7l-.6-2.2c-.5-1.6-.9-1.9-2.8-1.9h-2.6v5.8h-3.3v-16.1ZM2042.2-1090c0-1.4-.8-2.2-2.8-2.2h-3.2v4.6h3.2c1.8,0,2.8-.8,2.8-2.4Z"/>
    </g>
  </g>
  <g>
    <g>
      <path class="st2" d="M1729-253.3c-7.5,0-13.8-1.1-18.9-3.3-5.1-2.2-8.9-5.5-11.4-9.8s-3.8-9.7-3.8-16c0-9.3,2.9-16.5,8.8-21.5,5.8-5.1,14.2-7.6,25.2-7.6s11.8.9,16.6,2.6c4.8,1.7,8.6,4.2,11.2,7.5,2.7,3.3,4,7.4,4,12.2h-10.4c0-3.1-.9-5.6-2.7-7.5-1.8-2-4.3-3.4-7.6-4.4-3.3-1-7.1-1.4-11.4-1.4s-8.5.7-12,2.2c-3.4,1.4-6.1,3.6-8,6.4-1.9,2.8-2.9,6.3-2.9,10.5v2c0,4.3,1,7.8,2.9,10.7s4.6,5,8.1,6.4c3.5,1.4,7.5,2.1,12.1,2.1s8.3-.5,11.6-1.4c3.2-.9,5.7-2.4,7.5-4.4,1.8-2,2.7-4.5,2.7-7.4h10.2c0,4.7-1.3,8.7-4,12-2.7,3.3-6.4,5.8-11.2,7.5-4.8,1.7-10.3,2.6-16.6,2.6Z"/>
      <path class="st2" d="M1778.3-254.3v-56.3h10.6v47h35.5v9.3h-46.1Z"/>
      <path class="st2" d="M1867.2-253.3c-6.9,0-12.6-1.1-17.1-3.2-4.5-2.1-7.9-5.2-10.1-9.1-2.2-4-3.3-8.6-3.3-14v-31h10.7v30.7c0,5.7,1.7,10.1,5.1,13.1,3.4,3.1,8.3,4.6,14.7,4.6s11.2-1.5,14.7-4.6c3.4-3.1,5.2-7.4,5.2-13.1v-30.7h10.6v31c0,5.4-1.1,10-3.3,14-2.2,4-5.6,7-10,9.1-4.5,2.1-10.2,3.2-17.1,3.2Z"/>
      <path class="st2" d="M1917.2-254.3v-56.3h42c3.1,0,5.9.6,8.2,1.7s4.2,2.7,5.5,4.8c1.3,2,2,4.4,2,7.2s-.4,4.2-1.2,5.9c-.8,1.8-1.9,3.3-3.4,4.5-1.4,1.2-3.1,2.1-4.9,2.7v.3c2.2.4,4.1,1.3,5.8,2.5,1.7,1.2,3,2.8,3.9,4.7,1,1.9,1.4,4.2,1.4,6.7s-.8,6.4-2.3,8.6c-1.6,2.2-3.6,3.9-6.3,5-2.6,1.1-5.5,1.6-8.8,1.6h-42ZM1927.8-287.4h27.7c1.7,0,3.2-.3,4.5-.9,1.3-.6,2.3-1.5,3-2.6.7-1.1,1.1-2.4,1.1-3.9,0-2.4-.7-4.2-2.1-5.3-1.4-1.1-3.2-1.7-5.5-1.7h-28.7v14.3ZM1927.8-263.3h29.5c2.5,0,4.6-.6,6.1-1.8,1.6-1.2,2.3-3.1,2.3-5.7s-.3-3-1-4.2c-.7-1.2-1.7-2.1-3-2.7-1.3-.6-2.9-.9-4.8-.9h-29.2v15.3Z"/>
    </g>
    <path class="st2" d="M1954.6-338.2c29.3,0,53.2,23.9,53.2,53.2s-23.9,53.2-53.2,53.2h-238.8c-29.3,0-53.2-23.9-53.2-53.2s23.9-53.2,53.2-53.2h238.8M1954.6-344.2h-238.8c-32.7,0-59.2,26.5-59.2,59.2h0c0,32.7,26.5,59.2,59.2,59.2h238.8c32.7,0,59.2-26.5,59.2-59.2h0c0-32.7-26.5-59.2-59.2-59.2h0Z"/>
    <polygon class="st3" points="1619.4 -225.8 1027.8 -225.8 1055.3 -344.2 1645.5 -344.2 1619.4 -225.8"/>
    <g>
      <path class="st2" d="M1076.6-254.3v-56.3h43.4c3.8,0,7,.8,9.6,2.3,2.5,1.6,4.4,3.6,5.7,6.2,1.3,2.6,1.9,5.5,1.9,8.7s-.9,6.5-2.7,9.4c-1.8,2.9-4.4,5.1-8,6.6l12.1,23h-11.9l-10.7-21.1h-28.7v21.1h-10.6ZM1087.2-284.2h30.1c2.8,0,5.1-.8,6.6-2.5,1.6-1.7,2.4-3.8,2.4-6.4s-.3-3.3-1-4.6c-.7-1.3-1.7-2.2-3.1-2.9-1.4-.7-3-1-4.9-1h-30.1v17.5Z"/>
      <path class="st2" d="M1187.3-253.3c-6.9,0-12.6-1.1-17.1-3.2-4.5-2.1-7.9-5.2-10.1-9.1-2.2-4-3.3-8.6-3.3-14v-31h10.7v30.7c0,5.7,1.7,10.1,5.1,13.1,3.4,3.1,8.3,4.6,14.7,4.6s11.2-1.5,14.7-4.6c3.4-3.1,5.2-7.4,5.2-13.1v-30.7h10.6v31c0,5.4-1.1,10-3.3,14-2.2,4-5.6,7-10,9.1-4.5,2.1-10.2,3.2-17.1,3.2Z"/>
      <path class="st2" d="M1240.5-254.3v-56.3h10.1l33.2,32.9c.7.6,1.4,1.4,2.3,2.3.9,1,1.8,1.9,2.8,2.9,1,1,1.8,1.9,2.4,2.6h.7c0-1.1-.1-2.5-.2-4.1,0-1.6,0-3,0-4.2v-32.5h10.2v56.3h-9.8l-33.3-33.2c-1.4-1.4-2.8-2.8-4.3-4.4-1.5-1.6-2.7-2.8-3.5-3.8h-.6c0,.8,0,2.1.1,3.9,0,1.8,0,3.6,0,5.7v31.9h-10.2Z"/>
      <path class="st2" d="M1325.4-254.3v-56.3h10.1l33.2,32.9c.7.6,1.4,1.4,2.3,2.3.9,1,1.8,1.9,2.8,2.9,1,1,1.8,1.9,2.4,2.6h.7c0-1.1-.1-2.5-.2-4.1s0-3,0-4.2v-32.5h10.2v56.3h-9.8l-33.3-33.2c-1.4-1.4-2.8-2.8-4.3-4.4-1.5-1.6-2.7-2.8-3.5-3.8h-.6c0,.8,0,2.1.1,3.9,0,1.8,0,3.6,0,5.7v31.9h-10.2Z"/>
      <path class="st2" d="M1410.3-254.3v-56.3h10.6v56.3h-10.6Z"/>
      <path class="st2" d="M1444.2-254.3v-56.3h10.1l33.2,32.9c.7.6,1.4,1.4,2.3,2.3.9,1,1.8,1.9,2.8,2.9,1,1,1.8,1.9,2.4,2.6h.7c0-1.1-.1-2.5-.2-4.1,0-1.6,0-3,0-4.2v-32.5h10.2v56.3h-9.8l-33.3-33.2c-1.4-1.4-2.8-2.8-4.3-4.4-1.5-1.6-2.7-2.8-3.5-3.8h-.6c0,.8,0,2.1.1,3.9,0,1.8,0,3.6,0,5.7v31.9h-10.2Z"/>
      <path class="st2" d="M1560.7-253.3c-11.4,0-19.9-2.4-25.5-7.2-5.7-4.8-8.5-12.1-8.5-21.9s1.4-11.8,4.3-16.1c2.9-4.3,7-7.6,12.4-9.8,5.4-2.2,11.9-3.3,19.4-3.3s9.6.4,13.7,1.3,7.6,2.1,10.5,3.8c2.9,1.7,5.2,3.8,6.7,6.4,1.6,2.6,2.3,5.7,2.3,9.2h-10.3c0-2.3-.6-4.2-1.8-5.8-1.2-1.6-2.9-2.8-5-3.6-2.1-.9-4.5-1.5-7.2-1.8-2.7-.4-5.5-.5-8.4-.5s-7,.4-10.1,1.1c-3.1.7-5.9,1.8-8.2,3.4-2.4,1.5-4.2,3.5-5.5,5.9-1.3,2.4-2,5.4-2,8.8v2c0,4.6,1,8.4,3,11.2,2,2.8,4.8,4.9,8.4,6.2,3.6,1.3,7.8,1.9,12.6,1.9s10.4-.5,13.9-1.6c3.5-1.1,6.1-2.7,7.7-4.7,1.6-2,2.5-4.4,2.5-7.2v-.9h-24.2v-8.5h34.6v30.9h-6.8l-1.1-7.9c-2,2.1-4.5,3.9-7.3,5.2-2.8,1.3-6,2.3-9.4,2.8-3.4.6-7,.9-10.7.9Z"/>
    </g>
    <g>
      <path class="st2" d="M381.2-621.5h138.3l48,217,48-217h138.3l-94.3,218h-183.9l-94.3-218Z"/>
      <polygon class="st2" points="1145.4 -679.1 1145.4 -403.5 1263.8 -403.5 1263.8 -691.5 1263.8 -691.5 1145.4 -679.1"/>
      <path class="st2" d="M1280-621.5h138.3l48,217,48-217h138.3l-94.3,218h-183.9l-94.3-218Z"/>
      <path class="st2" d="M1045.6-621.6h-218.7c-44,0-79.7,35.7-79.7,79.7v58.7c0,44,35.7,79.7,79.7,79.7h218.7c44,0,79.7-35.7,79.7-79.7v-58.7c0-44-35.7-79.7-79.7-79.7ZM985.2-470.6c0,13.3-10.7,24-24,24h-50c-13.3,0-24-10.7-24-24v-84c0-13.3,10.7-24,24-24h50c13.3,0,24,10.7,24,24v84Z"/>
      <path class="st2" d="M266.4-483l.2,1.5c1.4,13.2-8.2,25.1-21.4,26.4l-80.1,8.4c-13.2,1.4-25.1-8.2-26.4-21.4l-.2-1.5h0l-2.2-21.4,127.9-13.4h0l123.5-13v-24.6c0-44-35.7-79.7-79.7-79.7H89.3c-44,0-79.7,35.7-79.7,79.7v58.7c0,44,35.7,79.7,79.7,79.7h218.7c44,0,79.7-35.7,79.7-79.7v-12.5l-121.2,12.7ZM130.7-543.5c-1.4-13.2,8.2-25.1,21.4-26.4l80.1-8.4c13.2-1.4,25.1,8.2,26.4,21.4l2.1,19.8-127.9,13.4-2.1-19.8Z"/>
      <path class="st2" d="M1903-483l.2,1.5c1.4,13.2-8.2,25.1-21.4,26.4l-80.1,8.4c-13.2,1.4-25.1-8.2-26.4-21.4l-.2-1.5h0l-2.2-21.4,251.4-26.4v-24.6c0-44-35.7-79.7-79.7-79.7h-218.7c-44,0-79.7,35.7-79.7,79.7v58.7c0,44,35.7,79.7,79.7,79.7h218.7c44,0,79.7-35.7,79.7-79.7v-12.5l-121.2,12.7ZM1767.3-543.6c-1.4-13.2,8.2-25.1,21.4-26.4l80.1-8.4c13.2-1.4,25.1,8.2,26.4,21.4l2.1,19.8-127.9,13.4-2.1-19.8Z"/>
      <path class="st2" d="M2024.2-418.8c0-8.6,6.4-15.1,14.8-15.1s14.8,6.5,14.8,15.1-6.4,15.1-14.8,15.1-14.8-6.6-14.8-15.1ZM2050.7-418.8c0-7-5-12.3-11.7-12.3s-11.8,5.3-11.8,12.3,5.1,12.2,11.8,12.2,11.7-5.3,11.7-12.2ZM2032.9-427h6.7c3.9,0,5.9,1.7,5.9,4.6s-1.3,3.8-3.3,4.2v.2c1.4.2,2.2,1,2.6,2.5l.9,2.8c.2.7.5,1.4.7,1.8h-3.6c-.2-.5-.4-1.1-.6-1.7l-.6-2.2c-.5-1.6-.9-1.9-2.8-1.9h-2.6v5.8h-3.3v-16.1ZM2042.2-422c0-1.4-.8-2.2-2.8-2.2h-3.2v4.6h3.2c1.8,0,2.8-.8,2.8-2.4Z"/>
    </g>
  </g>
  <g>
    <path class="st0" d="M1031,351.8h565.6c22.1,0,40,17.9,40,40v78.4h-565.6c-22.1,0-40-17.9-40-40v-78.4h0Z"/>
    <g>
      <path class="st1" d="M1065.4,441.7v-56.3h52.7v8.9h-42.1v15.4h38.5v8.9h-38.5v23.1h-10.6Z"/>
      <path class="st1" d="M1136.4,441.7v-56.3h10.6v56.3h-10.6Z"/>
      <path class="st1" d="M1201.9,442.7c-11.4,0-19.9-2.4-25.5-7.2-5.7-4.8-8.5-12.1-8.5-21.9s1.4-11.8,4.3-16.1c2.9-4.3,7-7.6,12.4-9.8,5.4-2.2,11.9-3.3,19.4-3.3s9.6.4,13.7,1.3,7.6,2.1,10.5,3.8c2.9,1.7,5.2,3.8,6.7,6.4,1.6,2.6,2.3,5.7,2.3,9.2h-10.3c0-2.3-.6-4.2-1.8-5.8-1.2-1.6-2.9-2.8-5-3.6-2.1-.9-4.5-1.5-7.2-1.8-2.7-.4-5.5-.5-8.4-.5s-7,.4-10.1,1.1c-3.1.7-5.9,1.8-8.2,3.4-2.4,1.5-4.2,3.5-5.5,5.9-1.3,2.4-2,5.4-2,8.8v2c0,4.6,1,8.4,3,11.2,2,2.8,4.8,4.9,8.4,6.2,3.6,1.3,7.8,1.9,12.6,1.9s10.4-.5,13.9-1.6c3.5-1.1,6.1-2.7,7.8-4.7,1.6-2.1,2.5-4.4,2.5-7.2v-.9h-24.2v-8.5h34.6v30.9h-6.8l-1.1-7.9c-2,2.1-4.5,3.9-7.3,5.2-2.8,1.3-6,2.3-9.4,2.8-3.4.6-7,.9-10.7.9Z"/>
      <path class="st1" d="M1260,441.7v-56.3h10.6v23h40.3v-23h10.6v56.3h-10.6v-24h-40.3v24h-10.6Z"/>
      <path class="st1" d="M1363.9,441.7v-47h-25.3v-9.3h61.1v9.3h-25.3v47h-10.6Z"/>
      <path class="st1" d="M1417,441.7v-56.3h10.6v56.3h-10.6Z"/>
      <path class="st1" d="M1450.9,441.7v-56.3h10.1l33.2,32.9c.7.6,1.4,1.4,2.3,2.3.9,1,1.8,1.9,2.8,2.9,1,1,1.8,1.9,2.4,2.6h.7c0-1.1-.1-2.5-.2-4.1,0-1.6,0-3,0-4.2v-32.5h10.2v56.3h-9.8l-33.3-33.2c-1.4-1.4-2.8-2.8-4.3-4.4-1.5-1.6-2.7-2.8-3.5-3.8h-.6c0,.8,0,2.1.1,3.9,0,1.8,0,3.6,0,5.7v31.9h-10.2Z"/>
      <path class="st1" d="M1567.4,442.7c-11.4,0-19.9-2.4-25.5-7.2-5.7-4.8-8.5-12.1-8.5-21.9s1.4-11.8,4.3-16.1c2.9-4.3,7-7.6,12.4-9.8,5.4-2.2,11.9-3.3,19.4-3.3s9.6.4,13.7,1.3,7.6,2.1,10.5,3.8c2.9,1.7,5.2,3.8,6.7,6.4,1.6,2.6,2.3,5.7,2.3,9.2h-10.3c0-2.3-.6-4.2-1.8-5.8-1.2-1.6-2.9-2.8-5-3.6-2.1-.9-4.5-1.5-7.2-1.8-2.7-.4-5.5-.5-8.4-.5s-7,.4-10.1,1.1c-3.1.7-5.9,1.8-8.2,3.4-2.4,1.5-4.2,3.5-5.5,5.9-1.3,2.4-2,5.4-2,8.8v2c0,4.6,1,8.4,3,11.2,2,2.8,4.8,4.9,8.4,6.2,3.6,1.3,7.8,1.9,12.6,1.9s10.4-.5,13.9-1.6c3.5-1.1,6.1-2.7,7.8-4.7,1.6-2.1,2.5-4.4,2.5-7.2v-.9h-24.2v-8.5h34.6v30.9h-6.8l-1.1-7.9c-2,2.1-4.5,3.9-7.3,5.2-2.8,1.3-6,2.3-9.4,2.8-3.4.6-7,.9-10.7.9Z"/>
    </g>
    <g>
      <path class="st2" d="M1729,442.7c-7.5,0-13.8-1.1-18.9-3.3s-8.9-5.5-11.4-9.8c-2.5-4.3-3.8-9.7-3.8-16,0-9.3,2.9-16.5,8.8-21.5s14.2-7.6,25.2-7.6,11.8.9,16.6,2.6c4.8,1.7,8.6,4.2,11.2,7.5,2.7,3.3,4,7.4,4,12.2h-10.4c0-3.1-.9-5.6-2.7-7.5-1.8-2-4.3-3.4-7.6-4.4-3.3-1-7.1-1.4-11.4-1.4s-8.5.7-12,2.2c-3.4,1.4-6.1,3.6-8,6.4-1.9,2.8-2.9,6.3-2.9,10.5v2c0,4.3,1,7.8,2.9,10.7,1.9,2.9,4.6,5,8.1,6.4,3.5,1.4,7.5,2.1,12.1,2.1s8.3-.5,11.6-1.4c3.2-.9,5.7-2.4,7.5-4.4,1.8-2,2.7-4.5,2.7-7.4h10.2c0,4.7-1.3,8.7-4,12-2.7,3.3-6.4,5.8-11.2,7.5-4.8,1.7-10.3,2.6-16.6,2.6Z"/>
      <path class="st2" d="M1778.3,441.7v-56.3h10.6v47h35.5v9.3h-46.1Z"/>
      <path class="st2" d="M1867.2,442.7c-6.9,0-12.6-1.1-17.1-3.2-4.5-2.1-7.9-5.2-10.1-9.1-2.2-4-3.3-8.6-3.3-14v-31h10.7v30.7c0,5.7,1.7,10.1,5.1,13.1,3.4,3.1,8.3,4.6,14.7,4.6s11.2-1.5,14.7-4.6c3.4-3.1,5.2-7.4,5.2-13.1v-30.7h10.6v31c0,5.4-1.1,10-3.3,14-2.2,4-5.6,7-10,9.1s-10.2,3.2-17.1,3.2Z"/>
      <path class="st2" d="M1917.2,441.7v-56.3h42c3.1,0,5.9.6,8.2,1.7,2.4,1.1,4.2,2.7,5.5,4.8,1.3,2,2,4.4,2,7.2s-.4,4.2-1.2,5.9c-.8,1.8-1.9,3.3-3.4,4.5-1.4,1.2-3.1,2.1-4.9,2.7v.3c2.2.4,4.1,1.3,5.8,2.5,1.7,1.2,3,2.8,3.9,4.7,1,1.9,1.4,4.2,1.4,6.7s-.8,6.4-2.3,8.6c-1.6,2.2-3.6,3.9-6.3,5-2.6,1.1-5.5,1.6-8.8,1.6h-42ZM1927.8,408.6h27.7c1.7,0,3.2-.3,4.5-.9,1.3-.6,2.3-1.5,3-2.6.7-1.1,1.1-2.4,1.1-3.9,0-2.4-.7-4.2-2.1-5.3-1.4-1.1-3.2-1.7-5.5-1.7h-28.7v14.4ZM1927.8,432.7h29.5c2.5,0,4.6-.6,6.1-1.8,1.6-1.2,2.3-3.1,2.3-5.7s-.3-3-1-4.2c-.7-1.2-1.7-2.1-3-2.7-1.3-.6-2.9-.9-4.8-.9h-29.2v15.3Z"/>
    </g>
    <path class="st2" d="M1954.6,357.8c29.3,0,53.2,23.9,53.2,53.2s-23.9,53.2-53.2,53.2h-238.8c-29.3,0-53.2-23.9-53.2-53.2s23.9-53.2,53.2-53.2h238.8M1954.6,351.8h-238.8c-32.7,0-59.2,26.5-59.2,59.2h0c0,32.7,26.5,59.2,59.2,59.2h238.8c32.7,0,59.2-26.5,59.2-59.2h0c0-32.7-26.5-59.2-59.2-59.2h0Z"/>
    <g>
      <path class="st2" d="M381.2,74.5h138.3l48,217,48-217h138.3l-94.3,218h-183.9l-94.3-218Z"/>
      <polygon class="st2" points="1145.4 16.9 1145.4 292.5 1263.8 292.5 1263.8 4.5 1263.8 4.5 1145.4 16.9"/>
      <path class="st2" d="M1280,74.5h138.3l48,217,48-217h138.3l-94.3,218h-183.9l-94.3-218Z"/>
      <path class="st2" d="M1045.6,74.4h-218.7c-44,0-79.7,35.7-79.7,79.7v58.7c0,44,35.7,79.7,79.7,79.7h218.7c44,0,79.7-35.7,79.7-79.7v-58.7c0-44-35.7-79.7-79.7-79.7ZM985.2,225.4c0,13.3-10.7,24-24,24h-50c-13.3,0-24-10.7-24-24v-84c0-13.3,10.7-24,24-24h50c13.3,0,24,10.7,24,24v84Z"/>
      <path class="st2" d="M266.4,213l.2,1.5c1.4,13.2-8.2,25.1-21.4,26.4l-80.1,8.4c-13.2,1.4-25.1-8.2-26.4-21.4l-.2-1.5h0l-2.2-21.4,127.9-13.4h0l123.5-13v-24.6c0-44-35.7-79.7-79.7-79.7H89.3c-44,0-79.7,35.7-79.7,79.7v58.7c0,44,35.7,79.7,79.7,79.7h218.7c44,0,79.7-35.7,79.7-79.7v-12.5l-121.2,12.7ZM130.7,152.5c-1.4-13.2,8.2-25.1,21.4-26.4l80.1-8.4c13.2-1.4,25.1,8.2,26.4,21.4l2.1,19.8-127.9,13.4-2.1-19.8Z"/>
      <path class="st2" d="M1903,213l.2,1.5c1.4,13.2-8.2,25.1-21.4,26.4l-80.1,8.4c-13.2,1.4-25.1-8.2-26.4-21.4l-.2-1.5h0l-2.2-21.4,251.4-26.4v-24.6c0-44-35.7-79.7-79.7-79.7h-218.7c-44,0-79.7,35.7-79.7,79.7v58.7c0,44,35.7,79.7,79.7,79.7h218.7c44,0,79.7-35.7,79.7-79.7v-12.5l-121.2,12.7ZM1767.3,152.4c-1.4-13.2,8.2-25.1,21.4-26.4l80.1-8.4c13.2-1.4,25.1,8.2,26.4,21.4l2.1,19.8-127.9,13.4-2.1-19.8Z"/>
      <path class="st2" d="M2024.2,277.2c0-8.6,6.4-15.1,14.8-15.1s14.8,6.5,14.8,15.1-6.4,15.1-14.8,15.1-14.8-6.6-14.8-15.1ZM2050.7,277.2c0-7-5-12.3-11.7-12.3s-11.8,5.3-11.8,12.3,5.1,12.2,11.8,12.2,11.7-5.3,11.7-12.2ZM2032.9,269h6.7c3.9,0,5.9,1.7,5.9,4.6s-1.3,3.8-3.3,4.2v.2c1.4.2,2.2,1,2.6,2.5l.9,2.8c.2.7.5,1.4.7,1.8h-3.6c-.2-.5-.4-1.1-.6-1.7l-.6-2.2c-.5-1.6-.9-1.9-2.8-1.9h-2.6v5.8h-3.3v-16.1ZM2042.2,274c0-1.4-.8-2.2-2.8-2.2h-3.2v4.6h3.2c1.8,0,2.8-.8,2.8-2.4Z"/>
    </g>
  </g>
</svg>