<?xml version="1.0" encoding="UTF-8"?>
<svg id="Layer_1" xmlns="http://www.w3.org/2000/svg" version="1.1" viewBox="0 0 400 248.5">
  <!-- Generator: Adobe Illustrator 30.4.0, SVG Export Plug-In . SVG Version: 2.1.3 Build 87)  -->
  <defs>
    <style>
      .st0 {
        fill: #1f252b;
      }

      .st1 {
        fill: #fff;
      }

      .st2 {
        fill: #2d71e0;
      }
    </style>
  </defs>
  <g>
    <path class="st1" d="M-572.5,858.3h-205.7c-53.2,0-96.6-43.3-96.6-96.6v-55.2c0-53.2,43.3-96.6,96.6-96.6h205.7c53.2,0,96.6,43.3,96.6,96.6v55.2c0,53.2-43.3,96.6-96.6,96.6ZM-778.2,615.7c-50.1,0-90.9,40.8-90.9,90.9v55.2c0,50.1,40.8,90.9,90.9,90.9h205.7c50.1,0,90.9-40.8,90.9-90.9v-55.2c0-50.1-40.8-90.9-90.9-90.9h-205.7Z"/>
    <path class="st1" d="M-611.6,762v1.4c1.5,12.4-7.6,23.6-20,24.9l-75.3,7.9c-12.4,1.3-23.6-7.7-24.9-20.1v-1.4h-.1l-2.1-20.1,120.3-12.6h0l116.1-12.2v-23.1c0-41.4-33.5-74.9-74.9-74.9h-205.7c-41.4,0-74.9,33.5-74.9,74.9v55.2c0,41.4,33.5,74.9,74.9,74.9h205.7c41.4,0,74.9-33.5,74.9-74.9v-11.8l-114,12ZM-739.2,705c-1.3-12.4,7.7-23.6,20.1-24.9l75.3-7.9c12.4-1.3,23.6,7.7,24.9,20.1l2,18.6-120.3,12.6-2-18.6Z"/>
  </g>
  <g>
    <path class="st1" d="M302.8,612.9H97.2c-51.7,0-93.7,42-93.7,93.7v55.2c0,51.7,42,93.7,93.7,93.7h205.7c51.7,0,93.7-42,93.7-93.7v-55.2c0-51.7-42-93.7-93.7-93.7ZM377.8,729.7l-116.1,12.2-120.3,12.6,2.1,20.1v1.4c1.5,12.4,12.6,21.4,25,20.1l75.3-7.9c12.4-1.3,21.4-12.4,20.1-24.9v-1.4c-.1,0,113.9-12,113.9-12v11.8c0,41.4-33.5,74.9-74.9,74.9H97.2c-41.4,0-74.9-33.5-74.9-74.9v-55.2c0-41.4,33.5-74.9,74.9-74.9h205.7c41.4,0,74.9,33.5,74.9,74.9v23.1Z"/>
    <path class="st1" d="M231.6,672.3l-75.3,7.9c-12.4,1.3-21.4,12.4-20.1,24.9l2,18.6,120.3-12.6-2-18.6c-1.3-12.4-12.4-21.4-24.9-20.1Z"/>
  </g>
  <path class="st1" d="M-1049.2,762v1.4c1.5,12.4-7.6,23.6-20,24.9l-75.3,7.9c-12.4,1.3-23.6-7.7-24.9-20.1v-1.4h-.1l-2.1-20.1,120.3-12.6h0l116.1-12.2v-23.1c0-41.4-33.5-74.9-74.9-74.9h-205.7c-41.4,0-74.9,33.5-74.9,74.9v55.2c0,41.4,33.5,74.9,74.9,74.9h205.7c41.4,0,74.9-33.5,74.9-74.9v-11.8l-114,12ZM-1176.9,705.1c-1.3-12.4,7.7-23.6,20.1-24.9l75.3-7.9c12.4-1.3,23.6,7.7,24.9,20.1l2,18.6-120.3,12.6-2-18.6Z"/>
  <path class="st1" d="M-134.8,637.4c38.2,0,69.3,31.1,69.3,69.3v18l-111.1,11.7-120.3,12.6-5.6.6.6,5.6,2.1,20.1v1.4c1.7,14.4,13.7,25.3,28.2,25.3s2,0,3-.2l75.3-7.9c7.5-.8,14.3-4.5,19-10.3,3.8-4.7,6-10.5,6.3-16.5l102.5-10.8v5.5c0,38.2-31.1,69.3-69.3,69.3h-205.7c-38.2,0-69.3-31.1-69.3-69.3v-55.2c0-38.2,31.1-69.3,69.3-69.3h205.7M-304.6,729.9l5.6-.6,120.3-12.6,5.6-.6-.6-5.6-2-18.6c-1.5-14.4-13.6-25.3-28.1-25.3-1,0-2,0-3,.2l-75.3,7.9c-7.5.8-14.3,4.5-19,10.3-4.8,5.9-6.9,13.2-6.1,20.7l2,18.6.6,5.6M-134.8,631.7h-205.7c-41.4,0-74.9,33.5-74.9,74.9v55.2c0,41.4,33.5,74.9,74.9,74.9h205.7c41.4,0,74.9-33.5,74.9-74.9v-11.8l-114,12v1.4c1.5,12.4-7.6,23.6-20,24.9l-75.3,7.9c-.8,0-1.6.1-2.4.1-11.4,0-21.3-8.6-22.5-20.3v-1.4c-.1,0-2.3-20.1-2.3-20.1l120.3-12.6,116.1-12.2v-23.1c0-41.4-33.5-74.9-74.9-74.9h0ZM-299.6,723.7l-2-18.6c-1.3-12.4,7.7-23.6,20.1-24.9l75.3-7.9c.8,0,1.6-.1,2.4-.1,11.4,0,21.3,8.6,22.5,20.3l2,18.6-120.3,12.6h0Z"/>
  <g>
    <path class="st0" d="M-572.5,554.3h-205.7c-53.2,0-96.6-43.3-96.6-96.6v-55.2c0-53.2,43.3-96.6,96.6-96.6h205.7c53.2,0,96.6,43.3,96.6,96.6v55.2c0,53.2-43.3,96.6-96.6,96.6ZM-778.2,311.7c-50.1,0-90.9,40.8-90.9,90.9v55.2c0,50.1,40.8,90.9,90.9,90.9h205.7c50.1,0,90.9-40.8,90.9-90.9v-55.2c0-50.1-40.8-90.9-90.9-90.9h-205.7Z"/>
    <path class="st0" d="M-611.6,458v1.4c1.5,12.4-7.6,23.6-20,24.9l-75.3,7.9c-12.4,1.3-23.6-7.7-24.9-20.1v-1.4h-.1l-2.1-20.1,120.3-12.6h0l116.1-12.2v-23.1c0-41.4-33.5-74.9-74.9-74.9h-205.7c-41.4,0-74.9,33.5-74.9,74.9v55.2c0,41.4,33.5,74.9,74.9,74.9h205.7c41.4,0,74.9-33.5,74.9-74.9v-11.8l-114,12ZM-739.2,401c-1.3-12.4,7.7-23.6,20.1-24.9l75.3-7.9c12.4-1.3,23.6,7.7,24.9,20.1l2,18.6-120.3,12.6-2-18.6Z"/>
  </g>
  <g>
    <path class="st0" d="M231.6,368.3l-75.3,7.9c-12.4,1.3-21.4,12.4-20.1,24.9l2,18.6,120.3-12.6-2-18.6c-1.3-12.4-12.4-21.4-24.9-20.1Z"/>
    <path class="st0" d="M302.8,308.9H97.2c-51.7,0-93.7,42-93.7,93.7v55.2c0,51.7,42,93.7,93.7,93.7h205.7c51.7,0,93.7-42,93.7-93.7v-55.2c0-51.7-42-93.7-93.7-93.7ZM377.8,425.7l-116.1,12.2-120.3,12.6,2.1,20.1v1.4c1.5,12.4,12.6,21.4,25,20.1l75.3-7.9c12.4-1.3,21.4-12.4,20.1-24.9v-1.4c-.1,0,113.9-12,113.9-12v11.8c0,41.4-33.5,74.9-74.9,74.9H97.2c-41.4,0-74.9-33.5-74.9-74.9v-55.2c0-41.4,33.5-74.9,74.9-74.9h205.7c41.4,0,74.9,33.5,74.9,74.9v23.1Z"/>
  </g>
  <path class="st0" d="M-1049.2,458v1.4c1.5,12.4-7.6,23.6-20,24.9l-75.3,7.9c-12.4,1.3-23.6-7.7-24.9-20.1v-1.4h-.1l-2.1-20.1,120.3-12.6h0l116.1-12.2v-23.1c0-41.4-33.5-74.9-74.9-74.9h-205.7c-41.4,0-74.9,33.5-74.9,74.9v55.2c0,41.4,33.5,74.9,74.9,74.9h205.7c41.4,0,74.9-33.5,74.9-74.9v-11.8l-114,12ZM-1176.9,401.1c-1.3-12.4,7.7-23.6,20.1-24.9l75.3-7.9c12.4-1.3,23.6,7.7,24.9,20.1l2,18.6-120.3,12.6-2-18.6Z"/>
  <path class="st0" d="M-134.8,333.4c38.2,0,69.3,31.1,69.3,69.3v18l-111.1,11.7-120.3,12.6-5.6.6.6,5.6,2.1,20.1v1.4c1.7,14.4,13.7,25.3,28.2,25.3s2,0,3-.2l75.3-7.9c7.5-.8,14.3-4.5,19-10.3,3.8-4.7,6-10.5,6.3-16.5l102.5-10.8v5.5c0,38.2-31.1,69.3-69.3,69.3h-205.7c-38.2,0-69.3-31.1-69.3-69.3v-55.2c0-38.2,31.1-69.3,69.3-69.3h205.7M-304.6,425.9l5.6-.6,120.3-12.6,5.6-.6-.6-5.6-2-18.6c-1.5-14.4-13.6-25.3-28.1-25.3-1,0-2,0-3,.2l-75.3,7.9c-7.5.8-14.3,4.5-19,10.3-4.8,5.9-6.9,13.2-6.1,20.7l2,18.6.6,5.6M-134.8,327.7h-205.7c-41.4,0-74.9,33.5-74.9,74.9v55.2c0,41.4,33.5,74.9,74.9,74.9h205.7c41.4,0,74.9-33.5,74.9-74.9v-11.8l-114,12v1.4c1.5,12.4-7.6,23.6-20,24.9l-75.3,7.9c-.8,0-1.6.1-2.4.1-11.4,0-21.3-8.6-22.5-20.3v-1.4c-.1,0-2.3-20.1-2.3-20.1l120.3-12.6,116.1-12.2v-23.1c0-41.4-33.5-74.9-74.9-74.9h0ZM-299.6,419.7l-2-18.6c-1.3-12.4,7.7-23.6,20.1-24.9l75.3-7.9c.8,0,1.6-.1,2.4-.1,11.4,0,21.3,8.6,22.5,20.3l2,18.6-120.3,12.6h0Z"/>
  <g>
    <path class="st2" d="M-572.5,248.3h-205.7c-53.2,0-96.6-43.3-96.6-96.6v-55.2C-874.7,43.4-831.4,0-778.2,0h205.7c53.2,0,96.6,43.3,96.6,96.6v55.2c0,53.2-43.3,96.6-96.6,96.6ZM-778.2,5.7c-50.1,0-90.9,40.8-90.9,90.9v55.2c0,50.1,40.8,90.9,90.9,90.9h205.7c50.1,0,90.9-40.8,90.9-90.9v-55.2c0-50.1-40.8-90.9-90.9-90.9h-205.7Z"/>
    <path class="st2" d="M-611.6,152v1.4c1.5,12.4-7.6,23.6-20,24.9l-75.3,7.9c-12.4,1.3-23.6-7.7-24.9-20.1v-1.4h-.1l-2.1-20.1,120.3-12.6h0l116.1-12.2v-23.1c0-41.4-33.5-74.9-74.9-74.9h-205.7c-41.4,0-74.9,33.5-74.9,74.9v55.2c0,41.4,33.5,74.9,74.9,74.9h205.7c41.4,0,74.9-33.5,74.9-74.9v-11.8l-114,12ZM-739.2,95c-1.3-12.4,7.7-23.6,20.1-24.9l75.3-7.9c12.4-1.3,23.6,7.7,24.9,20.1l2,18.6-120.3,12.6-2-18.6Z"/>
  </g>
  <g>
    <path class="st2" d="M231.6,62.3l-75.3,7.9c-12.4,1.3-21.4,12.4-20.1,24.9l2,18.6,120.3-12.6-2-18.6c-1.3-12.4-12.4-21.4-24.9-20.1Z"/>
    <path class="st2" d="M302.8,2.9H97.2C45.5,2.9,3.4,45,3.4,96.6v55.2c0,51.7,42,93.7,93.7,93.7h205.7c51.7,0,93.7-42,93.7-93.7v-55.2c0-51.7-42-93.7-93.7-93.7ZM377.8,119.7l-116.1,12.2-120.3,12.6,2.1,20.1v1.4c1.5,12.4,12.6,21.4,25,20.1l75.3-7.9c12.4-1.3,21.4-12.4,20.1-24.9v-1.4c-.1,0,113.9-12,113.9-12v11.8c0,41.4-33.5,74.9-74.9,74.9H97.2c-41.4,0-74.9-33.5-74.9-74.9v-55.2c0-41.4,33.5-74.9,74.9-74.9h205.7c41.4,0,74.9,33.5,74.9,74.9v23.1Z"/>
  </g>
  <path class="st2" d="M-1049.2,152v1.4c1.5,12.4-7.6,23.6-20,24.9l-75.3,7.9c-12.4,1.3-23.6-7.7-24.9-20.1v-1.4h-.1l-2.1-20.1,120.3-12.6h0l116.1-12.2v-23.1c0-41.4-33.5-74.9-74.9-74.9h-205.7c-41.4,0-74.9,33.5-74.9,74.9v55.2c0,41.4,33.5,74.9,74.9,74.9h205.7c41.4,0,74.9-33.5,74.9-74.9v-11.8l-114,12ZM-1176.9,95.1c-1.3-12.4,7.7-23.6,20.1-24.9l75.3-7.9c12.4-1.3,23.6,7.7,24.9,20.1l2,18.6-120.3,12.6-2-18.6Z"/>
  <path class="st2" d="M-134.8,27.4c38.2,0,69.3,31.1,69.3,69.3v18l-111.1,11.7-120.3,12.6-5.6.6.6,5.6,2.1,20.1v1.4c1.7,14.4,13.7,25.3,28.2,25.3s2,0,3-.2l75.3-7.9c7.5-.8,14.3-4.5,19-10.3,3.8-4.7,6-10.5,6.3-16.5l102.5-10.8v5.5c0,38.2-31.1,69.3-69.3,69.3h-205.7c-38.2,0-69.3-31.1-69.3-69.3v-55.2c0-38.2,31.1-69.3,69.3-69.3h205.7M-304.6,119.9l5.6-.6,120.3-12.6,5.6-.6-.6-5.6-2-18.6c-1.5-14.4-13.6-25.3-28.1-25.3-1,0-2,0-3,.2l-75.3,7.9c-7.5.8-14.3,4.5-19,10.3-4.8,5.9-6.9,13.2-6.1,20.7l2,18.6.6,5.6M-134.8,21.7h-205.7c-41.4,0-74.9,33.5-74.9,74.9v55.2c0,41.4,33.5,74.9,74.9,74.9h205.7c41.4,0,74.9-33.5,74.9-74.9v-11.8l-114,12v1.4c1.5,12.4-7.6,23.6-20,24.9l-75.3,7.9c-.8,0-1.6.1-2.4.1-11.4,0-21.3-8.6-22.5-20.3v-1.4c-.1,0-2.3-20.1-2.3-20.1l120.3-12.6,116.1-12.2v-23.1c0-41.4-33.5-74.9-74.9-74.9h0ZM-299.6,113.7l-2-18.6c-1.3-12.4,7.7-23.6,20.1-24.9l75.3-7.9c.8,0,1.6-.1,2.4-.1,11.4,0,21.3,8.6,22.5,20.3l2,18.6-120.3,12.6h0Z"/>
</svg>